<svg width="19" height="18" viewBox="0 0 19 18" fill="none" xmlns="http://www.w3.org/2000/svg">
<path d="M4.39808 2.63647C4.39784 3.11869 4.20605 3.58105 3.86491 3.92186C3.52376 4.26266 3.0612 4.45399 2.57899 4.45375C2.09678 4.45351 1.63441 4.26172 1.29361 3.92057C0.952804 3.57943 0.761478 3.11687 0.761719 2.63466C0.76196 2.15244 0.953749 1.69008 1.29489 1.34927C1.63604 1.00847 2.0986 0.817142 2.58081 0.817383C3.06302 0.817624 3.52539 1.00941 3.86619 1.35056C4.207 1.6917 4.39832 2.15426 4.39808 2.63647ZM4.45263 5.80011H0.816264V17.1819H4.45263V5.80011ZM10.1981 5.80011H6.5799V17.1819H10.1617V11.2092C10.1617 7.88193 14.4981 7.57284 14.4981 11.2092V17.1819H18.089V9.97284C18.089 4.36375 11.6708 4.57284 10.1617 7.32738L10.1981 5.80011Z" fill="#131E20"/>
</svg>
